HIERARCHY
ROOT Hips
{
	OFFSET 0.000000 71.427986 0.000000
	CHANNELS 6 Xposition Yposition Zposition Xrotation Yrotation Zrotation
	JOINT Pelvis
	{
		OFFSET 0.000000 0.000000 0.000000
		CHANNELS 3 Xrotation Yrotation Zrotation
		JOINT LeftUpLeg
		{
			OFFSET 6.797100 -2.508499 -1.318700
			CHANNELS 3 Xrotation Yrotation Zrotation
			JOINT LeftLeg
			{
				OFFSET 0.069008 -29.241863 0.690200
				CHANNELS 3 Xrotation Yrotation Zrotation
				JOINT LeftFoot
				{
					OFFSET -0.069008 -29.568123 -0.266800
					CHANNELS 3 Xrotation Yrotation Zrotation
					JOINT LeftToeBase
					{
						OFFSET 3.145500 -8.631000 16.059900
						CHANNELS 3 Xrotation Yrotation Zrotation
						End Site
						{
							OFFSET 0.000000 18.501587 0.000000
						}
					}
				}
			}
			JOINT Left_ShortSleeve
			{
				OFFSET 0.265923 -10.480953 1.153800
				CHANNELS 3 Xrotation Yrotation Zrotation
				End Site
				{
					OFFSET 1.725763 19.823879 0.000000
				}
			}
		}
		JOINT RightUpLeg
		{
			OFFSET -6.797100 -2.508499 -1.318700
			CHANNELS 3 Xrotation Yrotation Zrotation
			JOINT RightLeg
			{
				OFFSET -0.082453 -29.241932 0.688000
				CHANNELS 3 Xrotation Yrotation Zrotation
				JOINT RightFoot
				{
					OFFSET 0.082453 -29.568058 -0.264600
					CHANNELS 3 Xrotation Yrotation Zrotation
					JOINT RightToeBase
					{
						OFFSET -3.115300 -8.682800 16.113400
						CHANNELS 3 Xrotation Yrotation Zrotation
						End Site
						{
							OFFSET 0.000000 18.567114 0.000000
						}
					}
				}
			}
			JOINT Right_ShortSleeve
			{
				OFFSET -0.265923 -10.480953 1.153800
				CHANNELS 3 Xrotation Yrotation Zrotation
				End Site
				{
					OFFSET -1.725766 19.823910 0.000000
				}
			}
		}
	}
	JOINT Spine
	{
		OFFSET 0.000000 13.368103 0.470500
		CHANNELS 3 Xrotation Yrotation Zrotation
		JOINT Spine1
		{
			OFFSET 0.147000 13.837402 0.538800
			CHANNELS 3 Xrotation Yrotation Zrotation
			JOINT Spine2
			{
				OFFSET 0.168000 16.242897 -1.435500
				CHANNELS 3 Xrotation Yrotation Zrotation
				JOINT Neck
				{
					OFFSET 0.217200 18.631500 -1.679100
					CHANNELS 3 Xrotation Yrotation Zrotation
					JOINT Head
					{
						OFFSET 0.000000 6.599396 1.385900
						CHANNELS 3 Xrotation Yrotation Zrotation
						JOINT Hat
						{
							OFFSET -0.532200 27.220596 -10.096100
							CHANNELS 3 Xrotation Yrotation Zrotation
							End Site
							{
								OFFSET 0.000000 22.029861 0.000000
							}
						}
						JOINT HairD
						{
							OFFSET -10.777400 17.437393 -1.325900
							CHANNELS 3 Xrotation Yrotation Zrotation
							JOINT HairD1
							{
								OFFSET -3.290299 -11.051193 1.062200
								CHANNELS 3 Xrotation Yrotation Zrotation
								End Site
								{
									OFFSET 0.000000 11.579437 0.000000
								}
							}
						}
						JOINT HairB
						{
							OFFSET -10.777400 17.437393 1.467900
							CHANNELS 3 Xrotation Yrotation Zrotation
							JOINT HairB1
							{
								OFFSET -1.561200 -12.956299 3.590200
								CHANNELS 3 Xrotation Yrotation Zrotation
								End Site
								{
									OFFSET 0.000000 13.534866 0.000000
								}
							}
						}
						JOINT HairA
						{
							OFFSET 9.713100 17.437393 1.467900
							CHANNELS 3 Xrotation Yrotation Zrotation
							JOINT HairA1
							{
								OFFSET 1.561200 -12.956299 3.590200
								CHANNELS 3 Xrotation Yrotation Zrotation
								End Site
								{
									OFFSET 0.000000 13.534866 0.000000
								}
							}
						}
						JOINT HairC
						{
							OFFSET 9.713100 17.437393 -1.325900
							CHANNELS 3 Xrotation Yrotation Zrotation
							JOINT HairC1
							{
								OFFSET 3.290300 -11.051193 1.062200
								CHANNELS 3 Xrotation Yrotation Zrotation
								End Site
								{
									OFFSET 0.000000 11.579437 0.000000
								}
							}
						}
					}
				}
				JOINT LeftShoulder
				{
					OFFSET 5.101800 15.108002 -2.763700
					CHANNELS 3 Xrotation Yrotation Zrotation
					JOINT LeftArm
					{
						OFFSET 9.825497 2.506317 -1.597400
						CHANNELS 3 Xrotation Yrotation Zrotation
						JOINT LeftForeArm
						{
							OFFSET 21.966244 0.000000 0.000000
							CHANNELS 3 Xrotation Yrotation Zrotation
							JOINT LeftHand
							{
								OFFSET 33.879036 0.000000 0.000000
								CHANNELS 3 Xrotation Yrotation Zrotation
								JOINT LeftHandThumb1
								{
									OFFSET 6.715286 -2.359680 3.363841
									CHANNELS 3 Xrotation Yrotation Zrotation
									JOINT LeftHandThumb2
									{
										OFFSET 2.507072 -1.447464 1.447461
										CHANNELS 3 Xrotation Yrotation Zrotation
										JOINT LeftHandThumb3
										{
											OFFSET 2.898338 -1.673355 1.673357
											CHANNELS 3 Xrotation Yrotation Zrotation
											End Site
											{
												OFFSET -0.295959 3.727692 -0.131651
											}
										}
									}
								}
								JOINT LeftHandIndex1
								{
									OFFSET 14.190811 -0.254547 3.840278
									CHANNELS 3 Xrotation Yrotation Zrotation
									JOINT LeftHandIndex2
									{
										OFFSET 3.551727 0.000000 -0.000000
										CHANNELS 3 Xrotation Yrotation Zrotation
										JOINT LeftHandIndex3
										{
											OFFSET 2.894196 0.000000 0.000000
											CHANNELS 3 Xrotation Yrotation Zrotation
											End Site
											{
												OFFSET -1.000603 2.690872 0.366626
											}
										}
									}
								}
								JOINT LeftHandMiddle1
								{
									OFFSET 13.776489 0.000000 0.000000
									CHANNELS 3 Xrotation Yrotation Zrotation
									JOINT LeftHandMiddle2
									{
										OFFSET 3.438232 0.000000 0.000000
										CHANNELS 3 Xrotation Yrotation Zrotation
										JOINT LeftHandMiddle3
										{
											OFFSET 3.691551 0.000000 0.000000
											CHANNELS 3 Xrotation Yrotation Zrotation
											End Site
											{
												OFFSET -1.082298 3.499527 0.457670
											}
										}
									}
								}
								JOINT LeftHandRing1
								{
									OFFSET 13.966164 -0.268127 -3.067488
									CHANNELS 3 Xrotation Yrotation Zrotation
									JOINT LeftHandRing2
									{
										OFFSET 3.162567 0.000000 0.000000
										CHANNELS 3 Xrotation Yrotation Zrotation
										JOINT LeftHandRing3
										{
											OFFSET 3.324348 0.000000 0.000000
											CHANNELS 3 Xrotation Yrotation Zrotation
											End Site
											{
												OFFSET -0.861900 3.184998 0.405154
											}
										}
									}
								}
								JOINT LeftHandPinky1
								{
									OFFSET 13.131393 -0.168503 -5.746925
									CHANNELS 3 Xrotation Yrotation Zrotation
									JOINT LeftHandPinky2
									{
										OFFSET 2.849182 0.000000 0.000000
										CHANNELS 3 Xrotation Yrotation Zrotation
										JOINT LeftHandPinky3
										{
											OFFSET 2.805038 0.000000 0.000000
											CHANNELS 3 Xrotation Yrotation Zrotation
											End Site
											{
												OFFSET -0.882500 2.642609 0.325652
											}
										}
									}
								}
							}
							JOINT Left_Sleeve
							{
								OFFSET 6.592125 -0.646545 0.805568
								CHANNELS 3 Xrotation Yrotation Zrotation
								End Site
								{
									OFFSET -0.000179 20.275787 -0.000000
								}
							}
						}
					}
				}
				JOINT RightShoulder
				{
					OFFSET -5.731700 15.108002 -2.763700
					CHANNELS 3 Xrotation Yrotation Zrotation
					JOINT RightArm
					{
						OFFSET -9.825497 2.506317 -1.597400
						CHANNELS 3 Xrotation Yrotation Zrotation
						JOINT RightForeArm
						{
							OFFSET -21.966242 0.000000 0.000000
							CHANNELS 3 Xrotation Yrotation Zrotation
							JOINT RightHand
							{
								OFFSET -33.879032 0.000000 0.000000
								CHANNELS 3 Xrotation Yrotation Zrotation
								JOINT RightHandThumb1
								{
									OFFSET -6.715286 -2.359680 3.363841
									CHANNELS 3 Xrotation Yrotation Zrotation
									JOINT RightHandThumb2
									{
										OFFSET -2.507072 -1.447464 1.447461
										CHANNELS 3 Xrotation Yrotation Zrotation
										JOINT RightHandThumb3
										{
											OFFSET -2.898338 -1.673355 1.673357
											CHANNELS 3 Xrotation Yrotation Zrotation
											End Site
											{
												OFFSET 0.295959 3.727692 -0.131651
											}
										}
									}
								}
								JOINT RightHandIndex1
								{
									OFFSET -14.190811 -0.254547 3.840278
									CHANNELS 3 Xrotation Yrotation Zrotation
									JOINT RightHandIndex2
									{
										OFFSET -3.551727 0.000000 -0.000000
										CHANNELS 3 Xrotation Yrotation Zrotation
										JOINT RightHandIndex3
										{
											OFFSET -2.894196 0.000000 0.000000
											CHANNELS 3 Xrotation Yrotation Zrotation
											End Site
											{
												OFFSET 1.000603 2.690872 0.366626
											}
										}
									}
								}
								JOINT RightHandMiddle1
								{
									OFFSET -13.776489 0.000000 0.000000
									CHANNELS 3 Xrotation Yrotation Zrotation
									JOINT RightHandMiddle2
									{
										OFFSET -3.438232 0.000000 0.000000
										CHANNELS 3 Xrotation Yrotation Zrotation
										JOINT RightHandMiddle3
										{
											OFFSET -3.691551 0.000000 0.000000
											CHANNELS 3 Xrotation Yrotation Zrotation
											End Site
											{
												OFFSET 1.082298 3.499527 0.457670
											}
										}
									}
								}
								JOINT RightHandRing1
								{
									OFFSET -13.966164 -0.268127 -3.067488
									CHANNELS 3 Xrotation Yrotation Zrotation
									JOINT RightHandRing2
									{
										OFFSET -3.162567 0.000000 0.000000
										CHANNELS 3 Xrotation Yrotation Zrotation
										JOINT RightHandRing3
										{
											OFFSET -3.324348 0.000000 0.000000
											CHANNELS 3 Xrotation Yrotation Zrotation
											End Site
											{
												OFFSET 0.861900 3.184998 0.405154
											}
										}
									}
								}
								JOINT RightHandPinky1
								{
									OFFSET -13.131393 -0.168503 -5.746925
									CHANNELS 3 Xrotation Yrotation Zrotation
									JOINT RightHandPinky2
									{
										OFFSET -2.849182 0.000000 0.000000
										CHANNELS 3 Xrotation Yrotation Zrotation
										JOINT RightHandPinky3
										{
											OFFSET -2.805038 0.000000 0.000000
											CHANNELS 3 Xrotation Yrotation Zrotation
											End Site
											{
												OFFSET 0.882500 2.642609 0.325652
											}
										}
									}
								}
							}
							JOINT Right_Sleeve
							{
								OFFSET -6.592125 -0.646545 0.805568
								CHANNELS 3 Xrotation Yrotation Zrotation
								End Site
								{
									OFFSET 0.000179 20.275787 -0.000000
								}
							}
						}
					}
				}
				JOINT Bind_Right_JacketString
				{
					OFFSET -3.534800 11.969597 7.200700
					CHANNELS 3 Xrotation Yrotation Zrotation
					JOINT Bind_Right_JacketString1
					{
						OFFSET -0.319900 -6.102600 2.794100
						CHANNELS 3 Xrotation Yrotation Zrotation
						End Site
						{
							OFFSET 0.000000 6.719452 0.000000
						}
					}
				}
				JOINT Bind_Left_JacketString
				{
					OFFSET 2.904800 11.969597 7.200700
					CHANNELS 3 Xrotation Yrotation Zrotation
					JOINT Bind_Left_JacketString1
					{
						OFFSET 0.364800 -5.904503 3.186800
						CHANNELS 3 Xrotation Yrotation Zrotation
						End Site
						{
							OFFSET 0.000000 6.719513 0.000000
						}
					}
				}
				JOINT HairE
				{
					OFFSET 5.915200 17.612701 -11.592200
					CHANNELS 3 Xrotation Yrotation Zrotation
					JOINT HairE1
					{
						OFFSET 0.289200 -7.171898 -1.284500
						CHANNELS 3 Xrotation Yrotation Zrotation
						End Site
						{
							OFFSET 0.000000 7.291756 0.000000
						}
					}
				}
				JOINT HairF
				{
					OFFSET -0.864800 17.612701 -11.592200
					CHANNELS 3 Xrotation Yrotation Zrotation
					JOINT HairF1
					{
						OFFSET 0.000000 -14.087097 -2.127501
						CHANNELS 3 Xrotation Yrotation Zrotation
						End Site
						{
							OFFSET 0.000000 14.246841 0.000000
						}
					}
				}
				JOINT HairG
				{
					OFFSET -8.087700 17.612701 -11.592200
					CHANNELS 3 Xrotation Yrotation Zrotation
					JOINT HairG1
					{
						OFFSET -0.293600 -6.081398 -0.910100
						CHANNELS 3 Xrotation Yrotation Zrotation
						End Site
						{
							OFFSET 0.000000 6.156120 0.000000
						}
					}
				}
			}
		}
	}
	JOINT Pouch
	{
		OFFSET 0.000000 4.394501 10.847300
		CHANNELS 3 Xrotation Yrotation Zrotation
		End Site
		{
			OFFSET 0.000000 21.880577 0.000000
		}
	}
	JOINT Bag
	{
		OFFSET -13.229000 4.813004 -0.593300
		CHANNELS 3 Xrotation Yrotation Zrotation
		End Site
		{
			OFFSET 0.000000 21.880577 0.000000
		}
	}
	JOINT OccupyGuyFacialAnim_Joint
	{
		OFFSET 1.000000 -70.206398 -1.655000
		CHANNELS 3 Xrotation Yrotation Zrotation
		End Site
		{
			OFFSET 0.000000 21.880577 0.000000
		}
	}
}
MOTION
Frames: 4
Frame Time: 0.033333
-58.786594 37.469521 33.597851 32.260404 -18.488210 30.727139 -0.000003 0.000001 -0.000002 -28.643853 6.809614 39.618704 44.265671 -3.299625 6.820218 9.143114 26.814537 -41.622439 0.000000 -0.000002 -0.000002 0.000002 0.000000 0.000002 -129.136078 23.574570 -22.967725 105.720632 9.653311 1.293177 -7.192113 -2.686234 1.047919 -0.000000 -0.000000 -0.000000 0.000001 0.000001 -0.000003 5.777193 2.698452 11.420926 10.583951 0.797765 11.047425 10.619949 0.678153 9.745918 15.050868 3.388510 1.745793 5.228196 19.391098 -6.645611 0.000003 0.000002 -0.000000 0.000003 0.000002 -0.000000 0.000003 0.000002 0.000000 0.000003 0.000002 0.000001 0.000001 0.000001 0.000000 0.000003 0.000002 0.000001 0.000001 0.000001 0.000000 0.000003 0.000002 -0.000000 0.000003 0.000002 -0.000000 1.188001 -6.301931 17.164822 -111.125463 -13.573084 -39.370812 0.003068 -88.534264 0.003048 4.943749 -29.151080 31.493295 -14.399893 -24.770064 -3.352037 9.897483 43.709806 5.013872 0.000002 -0.000002 -0.000002 0.358366 4.684048 -8.782547 0.213029 1.566977 -15.482683 0.000003 -0.000004 0.000001 0.715918 5.321140 -17.510336 0.436819 2.221616 -22.244874 -0.000000 0.000000 0.000001 1.413998 6.345190 -28.090820 0.176824 1.429907 -14.098257 -0.000001 0.000003 -0.000002 2.739450 17.511393 -31.128847 0.194649 1.499079 -14.795680 -0.000001 0.000002 -0.000000 0.000000 -0.000003 0.000000 -2.357955 19.566539 27.939543 -43.222164 13.762662 5.619639 -0.000007 11.171295 -0.000015 -30.769790 14.446393 -42.746414 -14.934924 26.656987 4.095874 9.839796 -45.423138 -5.455544 -0.000000 -0.000001 0.000001 -0.376989 9.327896 2.575412 0.013890 -0.359854 4.421856 -0.000000 -0.000002 0.000002 -0.089491 -2.826064 -8.747991 0.088224 -0.903125 11.157728 -0.000000 -0.000001 0.000001 -2.343677 -14.073885 -11.673410 0.022196 -0.454587 5.589474 -0.000001 -0.000002 -0.000003 -5.397617 -23.762428 -6.977184 0.022243 -0.455118 5.595695 0.000000 0.000001 -0.000001 -0.000002 0.000000 0.000000 0.000000 0.000000 -0.000000 0.000001 -0.000003 0.000001 0.000000 0.000000 0.000001 0.000000 0.000000 0.000001 0.000000 0.000000 -0.000000 0.000001 -0.000003 0.000001 0.000000 0.000000 0.000001 0.000000 0.000000 0.000001 0.000000 0.000000 -0.000000 0.000001 -0.000003 0.000001 -0.000003 0.000001 -0.000002 -0.000003 0.000001 -0.000002 -0.000003 0.000001 -0.000002 
-57.644882 38.970749 33.092113 31.701380 -16.779536 28.769139 -0.000001 0.000001 0.000002 -31.475574 6.274101 40.885232 43.208781 -3.569877 5.464035 10.561579 25.636681 -42.125735 -0.000002 0.000001 -0.000001 -0.000000 0.000001 -0.000001 -124.826119 23.527644 -25.219398 101.471216 9.626428 1.290414 -6.116393 -4.383651 3.122346 -0.000000 -0.000002 -0.000000 0.000001 0.000000 -0.000003 5.619842 2.539151 10.733330 10.401439 0.730079 10.478405 10.431353 0.646434 9.335544 14.347835 3.763117 1.814138 4.235198 19.800222 -6.081335 0.000001 0.000003 0.000001 0.000001 0.000003 0.000001 0.000001 0.000003 0.000002 0.000001 0.000003 0.000003 -0.000002 0.000002 0.000001 0.000001 0.000003 0.000003 -0.000002 0.000002 0.000001 0.000001 0.000003 0.000001 0.000001 0.000003 0.000001 0.990245 -5.698078 15.744204 -106.640099 -18.054552 -39.658920 -0.000225 -85.349347 -0.000222 7.683718 -28.226783 34.201769 -14.400580 -24.770466 -3.350817 9.898937 43.709734 5.012478 -0.000003 0.000001 -0.000002 0.358483 4.684096 -8.783341 0.213005 1.566921 -15.481991 0.000002 -0.000003 -0.000002 0.715729 5.320527 -17.510740 0.436857 2.221707 -22.245750 0.000001 0.000003 0.000001 1.414426 6.345938 -28.091632 0.176807 1.429843 -14.097519 0.000000 -0.000001 -0.000001 2.739185 17.511637 -31.129229 0.194626 1.499002 -14.794832 -0.000000 0.000002 -0.000000 0.000000 -0.000000 -0.000000 -2.263427 20.115915 26.546345 -40.971877 10.999029 5.523670 0.000000 8.656600 0.000003 -36.324305 13.419808 -34.062963 -15.431557 27.038193 3.943112 9.858619 -45.694741 -5.475440 -0.000001 -0.000002 0.000002 -1.344718 9.152916 7.316680 0.011164 -0.322656 3.963997 0.000001 -0.000000 0.000005 -0.059743 -3.081663 -5.964027 0.077149 -0.845097 10.432401 -0.000002 -0.000004 -0.000003 -2.054594 -16.188928 -9.087276 0.013851 -0.359329 4.415401 -0.000002 0.000000 0.000003 -5.702072 -26.133859 -3.850701 0.015954 -0.385640 4.739245 -0.000001 0.000000 0.000001 0.000002 -0.000001 0.000001 0.000001 -0.000002 0.000001 -0.000000 -0.000002 0.000001 0.000001 -0.000002 -0.000000 0.000001 -0.000002 -0.000000 0.000001 -0.000002 0.000001 -0.000000 -0.000002 0.000001 0.000001 -0.000002 -0.000000 0.000001 -0.000002 -0.000000 0.000001 -0.000002 0.000001 -0.000000 -0.000002 0.000001 -0.000001 0.000001 0.000002 -0.000001 0.000001 0.000002 -0.000001 0.000001 0.000002 
-56.370136 40.555519 32.531685 31.185933 -14.994130 26.748856 0.000000 0.000000 -0.000000 -34.530896 5.828670 41.930135 42.121831 -2.696124 4.045133 11.837175 23.599815 -41.880329 0.000000 -0.000001 0.000000 -0.000001 -0.000000 -0.000000 -120.191030 23.307583 -27.452137 96.694326 7.993767 1.286340 -4.575162 -4.775436 5.600479 -0.000000 0.000000 0.000000 -0.000000 -0.000001 0.000000 5.453342 2.368558 9.961358 10.205244 0.651301 9.868240 10.229898 0.605015 8.898773 13.631113 4.146124 1.877001 3.259923 20.144226 -5.500391 -0.000000 0.000001 0.000001 -0.000000 0.000001 0.000001 -0.000000 0.000001 0.000002 -0.000000 0.000001 0.000001 -0.000003 -0.000001 0.000000 -0.000000 0.000001 0.000001 -0.000003 -0.000001 0.000000 -0.000000 0.000001 0.000001 -0.000000 0.000001 0.000001 0.823374 -5.071006 14.642177 -101.464721 -22.946946 -39.394943 0.000037 -82.109522 0.000036 10.829126 -27.284287 36.943742 -14.399260 -24.771197 -3.349337 9.900253 43.709796 5.010846 0.000003 -0.000001 0.000002 0.358589 4.684162 -8.783955 0.212997 1.566870 -15.481455 0.000000 0.000003 -0.000003 0.715573 5.320020 -17.510860 0.436860 2.221728 -22.245947 0.000002 -0.000002 -0.000001 1.414530 6.346118 -28.091824 0.176800 1.429826 -14.097342 0.000001 -0.000001 0.000001 2.739236 17.511645 -31.129342 0.194624 1.498973 -14.794615 0.000001 -0.000002 -0.000001 -0.000000 0.000000 -0.000000 -2.103949 20.508446 25.371202 -38.744935 8.459714 5.494995 -0.000005 5.351344 0.000005 -42.447532 11.426532 -26.420014 -14.448830 26.279966 4.252333 9.801672 -45.155829 -5.452907 0.000001 0.000000 -0.000003 -1.989068 8.742468 10.649756 0.016857 -0.396340 4.871105 -0.000001 -0.000001 0.000004 -0.006222 -3.373685 -2.647222 0.105383 -0.986185 12.199267 0.000000 -0.000001 -0.000003 -1.088085 -17.174796 -4.985908 0.038541 -0.598514 7.367682 0.000002 0.000002 0.000000 -4.774338 -27.794166 1.610210 0.052203 -0.696083 8.577215 -0.000001 -0.000000 0.000000 0.000004 -0.000001 -0.000000 0.000002 0.000001 0.000003 0.000001 0.000001 0.000001 0.000002 0.000001 0.000003 0.000002 0.000001 0.000003 0.000002 0.000001 0.000003 0.000001 0.000001 0.000002 0.000002 0.000001 0.000003 0.000002 0.000001 0.000003 0.000002 0.000001 0.000003 0.000001 0.000001 0.000002 0.000000 0.000000 -0.000000 0.000000 0.000000 -0.000000 0.000000 0.000000 -0.000000 
-54.986076 42.171112 31.931116 30.713930 -13.135479 24.648920 -0.000001 0.000001 -0.000000 -37.804909 5.403654 42.760481 41.207443 -1.203612 2.625649 12.907270 21.191408 -40.927532 0.000001 0.000000 -0.000003 -0.000000 0.000001 -0.000006 -115.343467 22.777788 -29.794535 91.461697 6.136424 1.280000 -2.606052 -5.046056 8.118317 -0.000000 0.000000 0.000000 -0.000001 -0.000000 -0.000001 5.276172 2.182712 9.131178 9.989989 0.556440 9.241565 10.010573 0.547256 8.454178 12.904916 4.530606 1.935375 2.305423 20.419802 -4.905199 0.000000 -0.000001 0.000001 0.000000 -0.000001 0.000001 0.000000 -0.000001 0.000001 0.000000 -0.000001 0.000001 -0.000001 0.000000 0.000003 0.000000 -0.000001 0.000001 -0.000001 0.000000 0.000003 0.000000 -0.000001 0.000001 0.000000 -0.000001 0.000001 0.704750 -4.552741 13.575611 -95.597752 -28.348765 -38.184043 0.000006 -78.821469 0.000005 14.286467 -26.169627 39.710412 -14.396345 -24.772114 -3.347768 9.901318 43.709809 5.009282 0.000001 0.000001 -0.000001 0.358685 4.684183 -8.784362 0.212981 1.566818 -15.481064 0.000002 0.000001 -0.000003 0.715342 5.319315 -17.510773 0.436854 2.221689 -22.245600 0.000000 0.000002 -0.000001 1.414356 6.345807 -28.091492 0.176812 1.429863 -14.097645 -0.000001 -0.000000 -0.000000 2.739343 17.511538 -31.129212 0.194629 1.499001 -14.794902 -0.000000 0.000000 0.000001 0.000000 0.000000 0.000000 -1.934875 20.729832 24.500780 -36.472794 5.992551 5.644652 -0.000004 2.788959 -0.000018 -48.171060 8.232935 -20.564675 -11.482837 23.898352 5.361214 9.632928 -43.480626 -5.375763 -0.000001 -0.000001 -0.000000 -2.330445 7.907962 14.505534 0.042552 -0.628810 7.742935 -0.000000 -0.000002 0.000002 0.144463 -3.890542 3.736905 0.215585 -1.401973 17.483459 0.000006 0.000001 0.000001 1.069691 -16.826501 3.519360 0.184983 -1.300873 16.186242 0.000003 0.000000 0.000000 -1.490521 -28.904036 13.031808 0.257723 -1.529311 19.131153 -0.000001 -0.000001 0.000002 0.000002 -0.000001 -0.000002 -0.000000 0.000001 -0.000000 -0.000001 0.000001 -0.000000 -0.000000 0.000001 -0.000001 -0.000000 0.000001 -0.000001 -0.000000 0.000001 -0.000000 -0.000001 0.000001 -0.000000 -0.000000 0.000001 -0.000001 -0.000000 0.000001 -0.000001 -0.000000 0.000001 -0.000000 -0.000001 0.000001 -0.000000 -0.000001 0.000001 -0.000000 -0.000001 0.000001 -0.000000 -0.000001 0.000001 -0.000000 
